Coordinates
version=1
nRows=6
nColumns=63
inDegrees=yes

Units are S.I. units (second, meters, Newtons, ...)
If the header above contains a line with 'inDegrees', this indicates whether rotational values are in degrees (yes) or radians (no).

endheader
time	pelvis_tilt	pelvis_list	pelvis_rotation	pelvis_tx	pelvis_ty	pelvis_tz	hip_flexion_r	hip_adduction_r	hip_rotation_r	knee_angle_r	knee_angle_r_beta	ankle_angle_r	subtalar_angle_r	mtp_angle_r	hip_flexion_l	hip_adduction_l	hip_rotation_l	knee_angle_l	knee_angle_l_beta	ankle_angle_l	subtalar_angle_l	mtp_angle_l	L5_S1_Flex_Ext	L5_S1_Lat_Bending	L5_S1_axial_rotation	L4_L5_Flex_Ext	L4_L5_Lat_Bending	L4_L5_axial_rotation	L3_L4_Flex_Ext	L3_L4_Lat_Bending	L3_L4_axial_rotation	L2_L3_Flex_Ext	L2_L3_Lat_Bending	L2_L3_axial_rotation	L1_L2_Flex_Ext	L1_L2_Lat_Bending	L1_L2_axial_rotation	L1_T12_Flex_Ext	L1_T12_Lat_Bending	L1_T12_axial_rotation	Abs_r3	Abs_r2	Abs_r1	Abs_t1	Abs_t2	neck_flexion	neck_bending	neck_rotation	arm_flex_r	arm_add_r	arm_rot_r	elbow_flex_r	pro_sup_r	wrist_flex_r	wrist_dev_r	arm_flex_l	arm_add_l	arm_rot_l	elbow_flex_l	pro_sup_l	wrist_flex_l	wrist_dev_l
8.322034	1.565332	9.411205	111.259511	0.149499	0.542727	1.016113	-6.657098	6.139223	-19.082465	18.781197	0.327794	44.051633	5.782232	0.000000	-6.409586	-2.489412	14.236339	18.152973	0.316829	43.807018	-2.552658	0.000000	-0.832050	1.529476	8.190287	-1.545201	2.034203	8.702180	-1.366976	3.718767	8.702180	-0.950950	3.718767	7.166501	-0.772642	3.118907	6.654608	-0.475434	2.369158	6.142715	-5.943253	17.301734	45.551918	0.000000	0.000000	-0.970271	-1.319340	-43.673353	-2.468849	-36.126682	-24.985379	117.026321	81.792464	-2.940055	19.141653	49.213265	29.915363	182.683335	0.048624	0.880091	-69.850677	-24.525284
8.338983	1.585816	9.639781	111.558352	0.149426	0.542490	1.016362	-6.897626	6.298186	-19.408816	18.732976	0.326952	44.029768	5.864877	0.000000	-6.569252	-2.645062	14.442552	18.315831	0.319672	43.824433	-2.627277	0.000000	-0.841755	1.550667	8.220593	-1.563223	2.062388	8.734380	-1.382919	3.770292	8.734380	-0.962042	3.770292	7.193019	-0.781654	3.162121	6.679232	-0.480979	2.401984	6.165445	-6.012571	17.541459	45.720472	0.000000	0.000000	-0.881223	-1.304620	-43.799799	-2.769560	-37.136550	-27.050345	117.663591	81.556947	-3.050702	18.526286	49.540946	30.215038	183.030809	0.047871	0.872004	-69.852479	-24.534245
8.355932	1.595796	9.862522	111.827309	0.149456	0.542211	1.016503	-7.131544	6.443547	-19.728622	18.685544	0.326124	44.033755	5.955821	0.000000	-6.716677	-2.784816	14.645784	18.491742	0.322742	43.865414	-2.706378	0.000000	-0.851343	1.566664	8.248978	-1.581029	2.083663	8.764539	-1.398671	3.809187	8.764539	-0.973000	3.809187	7.217856	-0.790557	3.194741	6.702295	-0.486457	2.426763	6.186734	-6.081056	17.722418	45.878341	0.000000	0.000000	-0.786231	-1.179086	-43.903273	-2.999466	-38.208037	-28.978718	118.373195	79.702076	-3.311687	17.803794	50.067063	30.568005	183.198507	0.047186	0.858659	-69.853682	-24.541760
8.372881	1.586886	10.078807	112.068553	0.149573	0.541893	1.016485	-7.363691	6.562953	-20.053146	18.645095	0.325418	44.076448	6.068309	0.000000	-6.866348	-2.900527	14.854089	18.659095	0.325663	43.926862	-2.792682	0.000000	-0.861319	1.575807	8.276726	-1.599556	2.095823	8.794022	-1.415062	3.831416	8.794022	-0.984402	3.831416	7.242136	-0.799821	3.213385	6.724840	-0.492158	2.440924	6.207545	-6.152318	17.825838	46.032669	0.000000	0.000000	-0.656818	-0.929135	-43.998909	-3.157773	-39.286483	-30.745203	119.196431	75.735043	-3.723932	17.139654	50.820717	30.986319	183.140515	0.046617	0.842988	-69.854455	-24.548916
8.389831	1.566980	10.281860	112.266074	0.149807	0.541555	1.016345	-7.575287	6.665308	-20.336773	18.617431	0.324935	44.147784	6.165305	0.000000	-6.993897	-3.002035	15.013555	18.837151	0.328770	44.017896	-2.838873	0.000000	-0.870707	1.577842	8.298093	-1.616990	2.098530	8.816723	-1.430485	3.836365	8.816723	-0.995131	3.836365	7.260831	-0.808539	3.217535	6.742200	-0.497522	2.444077	6.223569	-6.219374	17.848864	46.151501	0.000000	0.000000	-0.531534	-0.567265	-44.062397	-3.145140	-40.402105	-32.134354	120.012929	69.708578	-4.052401	16.331442	51.814739	31.446876	182.824053	0.046162	0.826695	-69.855230	-24.555271
8.406780	1.535050	10.471004	112.456365	0.150112	0.541215	1.016052	-7.773253	6.755328	-20.610745	18.593173	0.324512	44.245164	6.246462	0.000000	-7.108634	-3.106835	15.090371	18.999009	0.331595	44.147542	-2.734932	0.000000	-0.878637	1.572454	8.315028	-1.631717	2.091363	8.834717	-1.443513	3.823264	8.834717	-1.004195	3.823264	7.275649	-0.815903	3.206547	6.755960	-0.502053	2.435731	6.236271	-6.276019	17.787909	46.245691	0.000000	0.000000	-0.371375	-0.122536	-44.143818	-2.969455	-41.443085	-33.307053	120.834001	62.693703	-4.168565	15.591444	53.053901	31.965363	182.436477	0.045798	0.808079	-69.856141	-24.561134
